<svg xmlns="http://www.w3.org/2000/svg" viewBox="0 0 240 240" width="240" height="240">
  <defs>
    <pattern id="p" width="240" height="60" patternUnits="userSpaceOnUse">
      <g fill="#0C2C47">
        <rect x="4" y="26" width="2" height="8"></rect>
        <rect x="10" y="20" width="2" height="20"></rect>
        <rect x="16" y="14" width="2" height="32"></rect>
        <rect x="22" y="10" width="2" height="40"></rect>
        <rect x="28" y="18" width="2" height="24"></rect>
        <rect x="34" y="22" width="2" height="16"></rect>
        <rect x="40" y="12" width="2" height="36"></rect>
        <rect x="46" y="6" width="2" height="48"></rect>
        <rect x="52" y="14" width="2" height="32"></rect>
        <rect x="58" y="20" width="2" height="20"></rect>
        <rect x="64" y="24" width="2" height="12"></rect>
        <rect x="70" y="18" width="2" height="24"></rect>
        <rect x="76" y="10" width="2" height="40"></rect>
        <rect x="82" y="4" width="2" height="52"></rect>
        <rect x="88" y="12" width="2" height="36"></rect>
        <rect x="94" y="20" width="2" height="20"></rect>
        <rect x="100" y="26" width="2" height="8"></rect>
        <rect x="106" y="22" width="2" height="16"></rect>
        <rect x="112" y="16" width="2" height="28"></rect>
        <rect x="118" y="10" width="2" height="40"></rect>
        <rect x="124" y="14" width="2" height="32"></rect>
        <rect x="130" y="22" width="2" height="16"></rect>
        <rect x="136" y="18" width="2" height="24"></rect>
        <rect x="142" y="8" width="2" height="44"></rect>
        <rect x="148" y="14" width="2" height="32"></rect>
        <rect x="154" y="22" width="2" height="16"></rect>
        <rect x="160" y="26" width="2" height="8"></rect>
        <rect x="166" y="20" width="2" height="20"></rect>
        <rect x="172" y="12" width="2" height="36"></rect>
        <rect x="178" y="6" width="2" height="48"></rect>
        <rect x="184" y="14" width="2" height="32"></rect>
        <rect x="190" y="20" width="2" height="20"></rect>
        <rect x="196" y="24" width="2" height="12"></rect>
        <rect x="202" y="18" width="2" height="24"></rect>
        <rect x="208" y="10" width="2" height="40"></rect>
        <rect x="214" y="16" width="2" height="28"></rect>
        <rect x="220" y="22" width="2" height="16"></rect>
        <rect x="226" y="20" width="2" height="20"></rect>
        <rect x="232" y="14" width="2" height="32"></rect>
      </g>
    </pattern>
  </defs>
  <rect width="240" height="240" fill="url(#p)"></rect>
</svg>